<svg id="Camada_2" data-name="Camada 2" xmlns="http://www.w3.org/2000/svg" width="112" height="20.642" viewBox="0 0 112 20.642">
  <g id="Camada_7" data-name="Camada 7">
    <g id="Group_40445" data-name="Group 40445">
      <rect id="Rectangle_7211" data-name="Rectangle 7211" width="20.738" height="20.642" fill="none"/>
      <path id="Path_15839" data-name="Path 15839" d="M3.712,153.83a11.742,11.742,0,0,0-1.982-.52,10.376,10.376,0,0,0,8.614,8.353C10.232,158.462,7.638,155.238,3.712,153.83Z" transform="translate(-1.591 -141.021)" fill="#e3bf1e"/>
      <path id="Path_15840" data-name="Path 15840" d="M138.121,34.953a10.372,10.372,0,0,0-2.238-2.783,11.853,11.853,0,0,0-4.444,17.906,10.38,10.38,0,0,0,6.682-15.123Z" transform="translate(-118.689 -29.591)" fill="#f3dd05"/>
      <path id="Path_15841" data-name="Path 15841" d="M5.322,1.3A10.375,10.375,0,0,0,0,9.493a10.853,10.853,0,0,0,2.495.072,10.561,10.561,0,0,0,9.653-9.4A10.34,10.34,0,0,0,5.322,1.3Z" transform="translate(0 -0.002)" fill="#e1bb22"/>
      <rect id="Rectangle_7212" data-name="Rectangle 7212" width="112" height="20.641" transform="translate(0 0.002)" fill="none"/>
      <g id="Group_40444" data-name="Group 40444" transform="translate(23.232 1.509)">
        <path id="Path_15842" data-name="Path 15842" d="M685.94,36.118h2.993V18.82H685.94v17.3Z" transform="translate(-654.189 -18.82)" fill="#fff"/>
        <path id="Path_15843" data-name="Path 15843" d="M761.033,78a4.265,4.265,0,0,0-3.836,2.063v-1.8h-2.7v12.3h2.886V84.042a5.882,5.882,0,0,1,.135-1.354,2.579,2.579,0,0,1,2.668-2.1,2.338,2.338,0,0,1,2.531,2.158,7.716,7.716,0,0,1,.095,1.291v6.515H765.7V83.279a7.564,7.564,0,0,0-.273-2.184A4.252,4.252,0,0,0,761.033,78Z" transform="translate(-717.253 -73.256)" fill="#fff"/>
        <path id="Path_15844" data-name="Path 15844" d="M928.817,33.311a6.113,6.113,0,0,1-1.172.1h-3.314V28.536H927.9a4.73,4.73,0,0,1,.943.09,2.383,2.383,0,0,1-.022,4.686Zm-4.489-11.766h2.658a4.279,4.279,0,0,1,1.664.274,1.893,1.893,0,0,1,1.11,1.887,1.933,1.933,0,0,1-1.149,1.909,3.893,3.893,0,0,1-1.523.252h-2.757V21.545Zm6.733,5.338a3.911,3.911,0,0,0,1.662-3.4,4.444,4.444,0,0,0-3.447-4.419,10.328,10.328,0,0,0-2.44-.231H921.37v17.3h6.124a7.914,7.914,0,0,0,2.778-.39,4.792,4.792,0,0,0,3.468-4.656,4.393,4.393,0,0,0-2.676-4.2Z" transform="translate(-870.747 -18.829)" fill="#fff"/>
        <path id="Path_15845" data-name="Path 15845" d="M1251.656,81.23l-3.079,8.784-3.124-8.784h-3.123l4.883,12.3h2.66l4.874-12.3Z" transform="translate(-1165.979 -76.227)" fill="#fff"/>
        <path id="Path_15846" data-name="Path 15846" d="M1091.851,83.357a3.446,3.446,0,0,1,6.814,0Zm3.359-5.443a6.41,6.41,0,0,0,.123,12.817,6.167,6.167,0,0,0,5.808-4.034h-2.931a3.171,3.171,0,0,1-2.828,1.523,3.416,3.416,0,0,1-3.539-2.853h9.6a5.934,5.934,0,0,0,.087-1.168,6.261,6.261,0,0,0-6.316-6.289Z" transform="translate(-1024.931 -73.173)" fill="#fff"/>
        <path id="Path_15847" data-name="Path 15847" d="M313.986,33.4h-3.562v-4.97c.451-.019.895-.03,1.323-.024,3.24.042,5.125.984,5.125,2.663,0,1.51-1.35,2.333-2.886,2.333Zm-3.562-11.863h2.54a4.739,4.739,0,0,1,1.4.175,2.1,2.1,0,0,1,1.492,2.214,2.117,2.117,0,0,1-1.414,2.127,16.752,16.752,0,0,0-2.777-.219c-.386,0-.811.006-1.241.02V21.536ZM294.385,32.19l3.848-9.948,2.236,5.965a23.494,23.494,0,0,0-6.079,3.984Zm22.744-5.29a4.188,4.188,0,0,0,1.688-3.427,4.444,4.444,0,0,0-3.447-4.419,10.328,10.328,0,0,0-2.44-.231h-5.468v7.3a26.409,26.409,0,0,0-4.409,1.064l-3.416-8.364h-2.747l-7.06,17.3h2.88a24.219,24.219,0,0,1,8.555-5.771l2.164,5.771H306.7l-2.734-6.7a26.946,26.946,0,0,1,3.5-.749v7.448h6.706c3.687,0,5.667-2.164,5.667-5.05a4.523,4.523,0,0,0-2.706-4.176Z" transform="translate(-289.83 -18.82)" fill="#fff"/>
      </g>
    </g>
  </g>
</svg>
